<svg width="24" height="28" viewBox="0 0 24 28" fill="none" xmlns="http://www.w3.org/2000/svg">
<path d="M19.6665 14.797C19.6531 12.5019 20.6929 10.7722 22.7929 9.49675C21.6184 7.81412 19.8415 6.88867 17.4993 6.71032C15.2816 6.53532 12.8553 8.00257 11.9668 8.00257C11.0279 8.00257 8.8809 6.77089 7.19155 6.77089C3.70514 6.82473 0 9.55059 0 15.0965C0 16.7354 0.299507 18.4281 0.898523 20.1713C1.69945 22.4664 4.58684 28.0898 7.59874 27.9989C9.17368 27.9619 10.2876 26.8816 12.337 26.8816C14.3259 26.8816 15.3557 27.9989 17.1123 27.9989C20.1511 27.9552 22.7626 22.8433 23.5231 20.5415C19.4478 18.6199 19.6665 14.9148 19.6665 14.797V14.797ZM16.1297 4.533C17.8358 2.50711 17.681 0.662955 17.6306 0C16.1229 0.0874966 14.3797 1.0264 13.387 2.18068C12.2933 3.4191 11.6505 4.95029 11.7885 6.67666C13.4173 6.80118 14.9047 5.96323 16.1297 4.533V4.533Z" fill="#232725"/>
</svg>
