<svg width="13" height="22" viewBox="0 0 13 22" fill="none" xmlns="http://www.w3.org/2000/svg">
<path d="M12.1793 0.484254C12.4894 0.794415 12.6636 1.21503 12.6636 1.6536C12.6636 2.09216 12.4894 2.51278 12.1793 2.82294L3.99228 11.01L12.1793 19.197C12.4806 19.509 12.6473 19.9268 12.6435 20.3604C12.6398 20.7941 12.4658 21.2089 12.1592 21.5156C11.8525 21.8222 11.4377 21.9962 11.004 21.9999C10.5704 22.0037 10.1526 21.837 9.84064 21.5357L0.484254 12.1793C0.174186 11.8692 0 11.4486 0 11.01C0 10.5714 0.174186 10.1508 0.484254 9.84064L9.84064 0.484254C10.1508 0.174186 10.5714 0 11.01 0C11.4486 0 11.8692 0.174186 12.1793 0.484254V0.484254Z" fill="#FEFDFE"/>
</svg>
