<svg width="45" height="45" viewBox="0 0 45 45" fill="none" xmlns="http://www.w3.org/2000/svg">
<circle cx="22.5" cy="22.5" r="22.5" fill="#4D4C4D"/>
<path d="M11.0001 22.1123C10.9975 22.2728 11.0437 22.4303 11.1326 22.5639C11.2216 22.6975 11.349 22.8009 11.498 22.8604L19.0983 25.901L22.1389 33.5021C22.1976 33.6491 22.2991 33.7751 22.4302 33.8639C22.5613 33.9526 22.716 34.0001 22.8743 34H22.887C23.0473 33.9975 23.2031 33.9463 23.3337 33.8533C23.4643 33.7603 23.5636 33.6298 23.6184 33.4791L29.9513 16.0636C30.0032 15.922 30.0134 15.7684 29.9809 15.6211C29.9484 15.4738 29.8745 15.3388 29.7679 15.2321C29.6612 15.1254 29.5263 15.0513 29.379 15.0187C29.2317 14.9861 29.0782 14.9963 28.9365 15.048L11.521 21.3809C11.3702 21.4359 11.2397 21.5353 11.1467 21.666C11.0537 21.7968 11.0026 21.9527 11.0001 22.1131V22.1123Z" fill="#A5AAA6"/>
</svg>
