<svg width="27" height="22" viewBox="0 0 27 22" fill="none" xmlns="http://www.w3.org/2000/svg">
<path d="M23.6923 3.38462H19.5824L18.6033 0.64066C18.5357 0.452898 18.4117 0.290599 18.2483 0.175932C18.085 0.0612657 17.8902 -0.000176066 17.6907 3.78965e-07H8.41923C8.01126 3.78965e-07 7.6456 0.256868 7.50962 0.64066L6.52747 3.38462H2.41758C1.08187 3.38462 0 4.46648 0 5.8022V19.5824C0 20.9181 1.08187 22 2.41758 22H23.6923C25.028 22 26.1099 20.9181 26.1099 19.5824V5.8022C26.1099 4.46648 25.028 3.38462 23.6923 3.38462ZM13.0549 17.1648C10.3835 17.1648 8.21978 15.0011 8.21978 12.3297C8.21978 9.65824 10.3835 7.49451 13.0549 7.49451C15.7264 7.49451 17.8901 9.65824 17.8901 12.3297C17.8901 15.0011 15.7264 17.1648 13.0549 17.1648ZM10.1538 12.3297C10.1538 13.0991 10.4595 13.837 11.0036 14.3811C11.5476 14.9251 12.2855 15.2308 13.0549 15.2308C13.8244 15.2308 14.5623 14.9251 15.1063 14.3811C15.6504 13.837 15.956 13.0991 15.956 12.3297C15.956 11.5603 15.6504 10.8223 15.1063 10.2783C14.5623 9.73422 13.8244 9.42857 13.0549 9.42857C12.2855 9.42857 11.5476 9.73422 11.0036 10.2783C10.4595 10.8223 10.1538 11.5603 10.1538 12.3297Z" fill="#A5AAA6"/>
</svg>
