<svg width="23" height="22" viewBox="0 0 23 22" fill="none" xmlns="http://www.w3.org/2000/svg">
<path d="M20.4737 18.9106C21.1627 17.987 21.6356 16.9204 21.8573 15.7897C22.0791 14.6589 22.0441 13.4928 21.7549 12.3774C21.4658 11.262 20.9299 10.2257 20.1867 9.34509C19.4436 8.46446 18.5122 7.76195 17.4612 7.2894C17.2323 5.97238 16.7062 4.72485 15.9229 3.64162C15.1396 2.5584 14.1197 1.66796 12.9407 1.03798C11.7617 0.407999 10.4546 0.055045 9.11869 0.00593751C7.78282 -0.04317 6.45333 0.212861 5.23124 0.754576C4.00915 1.29629 2.92662 2.10944 2.06589 3.13223C1.20516 4.15502 0.588888 5.36055 0.263896 6.65722C-0.0610971 7.95388 -0.0862585 9.30756 0.190324 10.6154C0.466906 11.9233 1.03795 13.1508 1.86008 14.2049L0.331848 15.7222C0.179291 15.8768 0.0759474 16.0731 0.0348566 16.2864C-0.00623431 16.4997 0.0167691 16.7203 0.100964 16.9206C0.183445 17.1213 0.323512 17.2932 0.503514 17.4145C0.683515 17.5358 0.895396 17.6011 1.11246 17.6022H7.36831C7.9913 18.9156 8.97354 20.0257 10.2013 20.804C11.4291 21.5823 12.8522 21.997 14.3058 22H20.9025C21.1196 21.9989 21.3314 21.9336 21.5114 21.8123C21.6914 21.691 21.8315 21.5191 21.914 21.3183C21.9982 21.1181 22.0212 20.8974 21.9801 20.6842C21.939 20.4709 21.8357 20.2746 21.6831 20.1199L20.4737 18.9106ZM6.60969 14.3039C6.6112 14.672 6.6406 15.0396 6.69764 15.4033H3.76212L4.14693 15.0295C4.24998 14.9273 4.33177 14.8057 4.38759 14.6717C4.44341 14.5377 4.47214 14.394 4.47214 14.2489C4.47214 14.1038 4.44341 13.9601 4.38759 13.8261C4.33177 13.6921 4.24998 13.5705 4.14693 13.4683C3.53075 12.8589 3.04226 12.1327 2.71001 11.3323C2.37776 10.5319 2.20842 9.67327 2.2119 8.80664C2.2119 7.05709 2.90691 5.3792 4.14403 4.14208C5.38114 2.90496 7.05903 2.20996 8.80858 2.20996C10.1737 2.20175 11.5072 2.62157 12.6214 3.4104C13.7356 4.19923 14.5746 5.31741 15.0205 6.60774C14.7786 6.60774 14.5477 6.60774 14.3058 6.60774C12.2647 6.60774 10.3071 7.41858 8.86383 8.86189C7.42053 10.3052 6.60969 12.2627 6.60969 14.3039ZM18.1979 19.8011L18.2528 19.8561H14.3058C13.0341 19.8538 11.8026 19.4107 10.8209 18.6023C9.83928 17.7938 9.16829 16.6701 8.92226 15.4224C8.67623 14.1747 8.87038 12.8803 9.47163 11.7598C10.0729 10.6392 11.044 9.76174 12.2197 9.27687C13.3953 8.79201 14.7027 8.72973 15.9191 9.10066C17.1355 9.47159 18.1856 10.2528 18.8907 11.3111C19.5957 12.3695 19.912 13.6395 19.7857 14.9049C19.6594 16.1703 19.0982 17.3528 18.1979 18.2509C17.9907 18.4539 17.8722 18.7305 17.868 19.0205C17.8686 19.166 17.8981 19.3099 17.9547 19.4439C18.0113 19.5779 18.094 19.6993 18.1979 19.8011Z" fill="#A5AAA6"/>
</svg>
