<svg width="26" height="26" viewBox="0 0 26 26" fill="none" xmlns="http://www.w3.org/2000/svg">
<path d="M13.0118 10.63V15.6539H19.9879C19.3386 18.8464 16.6207 20.6806 13.0118 20.6806C10.9918 20.6528 9.06386 19.8308 7.64519 18.3925C6.22652 16.9542 5.43115 15.0152 5.43115 12.9949C5.43115 10.9746 6.22652 9.03562 7.64519 7.59729C9.06386 6.15896 10.9918 5.33698 13.0118 5.30918C14.7591 5.30709 16.4525 5.91343 17.8013 7.02407L21.5863 3.23908C20.0071 1.84994 18.1145 0.864692 16.0708 0.367885C14.0271 -0.128923 11.8934 -0.122456 9.85272 0.386729C7.81207 0.895914 5.92544 1.89261 4.35471 3.2913C2.78398 4.68998 1.57606 6.44888 0.834612 8.41707C0.0931597 10.3853 -0.159687 12.5039 0.0977694 14.5913C0.355226 16.6787 1.1153 18.6725 2.31276 20.4015C3.51022 22.1306 5.10932 23.5433 6.97283 24.5184C8.83634 25.4935 10.9086 26.0019 13.0118 26C19.5147 26 25.4281 21.2702 25.4281 12.9942C25.418 12.1973 25.3204 11.404 25.1369 10.6285L13.0118 10.63Z" fill="#232725"/>
</svg>
