<svg width="16" height="22" viewBox="0 0 16 22" fill="none" xmlns="http://www.w3.org/2000/svg">
<path d="M7 22C6.46957 22 5.96086 21.7893 5.58579 21.4142C5.21071 21.0391 5 20.5304 5 20V18H11V20C11 20.5304 10.7893 21.0391 10.4142 21.4142C10.0391 21.7893 9.53043 22 9 22H7ZM8 0C8.71 0 9.39 0.09 10.05 0.26C11.22 1.83 12 4.71 12 8C12 10.28 11.62 12.37 11 15C11 15.5304 10.7893 16.0391 10.4142 16.4142C10.0391 16.7893 9.53043 17 9 17H7C6.46957 17 5.96086 16.7893 5.58579 16.4142C5.21071 16.0391 5 15.5304 5 15C4.38 12.37 4 10.28 4 8C4 4.71 4.78 1.83 5.95 0.26C6.61 0.09 7.29 0 8 0ZM16 7C16 10.18 14.15 14.92 11.46 16.21C12.41 14.39 13 10.83 13 8C13 5.17 12.41 2.61 11.46 0.79C14.15 2.08 16 3.82 16 7ZM0 7C0 3.82 1.85 2.08 4.54 0.79C3.59 2.61 3 5.17 3 8C3 10.83 3.59 14.39 4.54 16.21C1.85 14.92 0 10.18 0 7Z" fill="#A5AAA6"/>
</svg>
