<svg width="20" height="20" viewBox="0 0 20 20" fill="none" xmlns="http://www.w3.org/2000/svg">
<path d="M6.18 1.97647H1C0.734784 1.97647 0.48043 2.08182 0.292893 2.26936C0.105357 2.45689 0 2.71125 0 2.97647C0 3.24168 0.105357 3.49604 0.292893 3.68357C0.48043 3.87111 0.734784 3.97647 1 3.97647H6.18C6.3902 4.55562 6.77363 5.05601 7.27816 5.40962C7.7827 5.76324 8.38388 5.95294 9 5.95294C9.61612 5.95294 10.2173 5.76324 10.7218 5.40962C11.2264 5.05601 11.6098 4.55562 11.82 3.97647L19 3.97647C19.2652 3.97647 19.5196 3.87111 19.7071 3.68357C19.8946 3.49604 20 3.24168 20 2.97647C20 2.71125 19.8946 2.45689 19.7071 2.26936C19.5196 2.08182 19.2652 1.97647 19 1.97647H11.82C11.6098 1.39731 11.2264 0.896925 10.7218 0.543306C10.2173 0.189688 9.61612 -1.14441e-05 9 -1.14441e-05C8.38388 -1.14441e-05 7.7827 0.189688 7.27816 0.543306C6.77363 0.896925 6.3902 1.39731 6.18 1.97647ZM10 2.97647C10 3.17425 9.94135 3.36759 9.83147 3.53204C9.72159 3.69649 9.56541 3.82466 9.38268 3.90034C9.19996 3.97603 8.99889 3.99584 8.80491 3.95725C8.61093 3.91866 8.43275 3.82343 8.29289 3.68357C8.15304 3.54372 8.0578 3.36554 8.01921 3.17156C7.98063 2.97758 8.00043 2.77651 8.07612 2.59378C8.15181 2.41106 8.27998 2.25488 8.44443 2.14499C8.60888 2.03511 8.80222 1.97647 9 1.97647C9.26522 1.97647 9.51957 2.08182 9.70711 2.26936C9.89464 2.45689 10 2.71125 10 2.97647ZM12.18 8.97647H1C0.734784 8.97647 0.48043 9.08182 0.292893 9.26936C0.105357 9.45689 0 9.71125 0 9.97647C0 10.2417 0.105357 10.496 0.292893 10.6836C0.48043 10.8711 0.734784 10.9765 1 10.9765H12.18C12.3902 11.5556 12.7736 12.056 13.2782 12.4096C13.7827 12.7632 14.3839 12.9529 15 12.9529C15.6161 12.9529 16.2173 12.7632 16.7218 12.4096C17.2264 12.056 17.6098 11.5556 17.82 10.9765H19C19.2652 10.9765 19.5196 10.8711 19.7071 10.6836C19.8946 10.496 20 10.2417 20 9.97647C20 9.71125 19.8946 9.45689 19.7071 9.26936C19.5196 9.08182 19.2652 8.97647 19 8.97647H17.82C17.6098 8.39731 17.2264 7.89693 16.7218 7.54331C16.2173 7.18969 15.6161 6.99999 15 6.99999C14.3839 6.99999 13.7827 7.18969 13.2782 7.54331C12.7736 7.89693 12.3902 8.39731 12.18 8.97647ZM16 9.97647C16 10.1742 15.9414 10.3676 15.8315 10.532C15.7216 10.6965 15.5654 10.8247 15.3827 10.9003C15.2 10.976 14.9989 10.9958 14.8049 10.9573C14.6109 10.9187 14.4327 10.8234 14.2929 10.6836C14.153 10.5437 14.0578 10.3655 14.0192 10.1716C13.9806 9.97757 14.0004 9.77651 14.0761 9.59378C14.1518 9.41106 14.28 9.25488 14.4444 9.145C14.6089 9.03511 14.8022 8.97647 15 8.97647C15.2652 8.97647 15.5196 9.08182 15.7071 9.26936C15.8946 9.45689 16 9.71125 16 9.97647ZM4.18 15.9765H1C0.734784 15.9765 0.48043 16.0818 0.292893 16.2694C0.105357 16.4569 0 16.7112 0 16.9765C0 17.2417 0.105357 17.496 0.292893 17.6836C0.48043 17.8711 0.734784 17.9765 1 17.9765H4.18C4.3902 18.5556 4.77363 19.056 5.27817 19.4096C5.7827 19.7632 6.38388 19.9529 7 19.9529C7.61612 19.9529 8.2173 19.7632 8.72184 19.4096C9.22637 19.056 9.6098 18.5556 9.82 17.9765H19C19.2652 17.9765 19.5196 17.8711 19.7071 17.6836C19.8946 17.496 20 17.2417 20 16.9765C20 16.7112 19.8946 16.4569 19.7071 16.2694C19.5196 16.0818 19.2652 15.9765 19 15.9765L9.82 15.9765C9.6098 15.3973 9.22637 14.8969 8.72184 14.5433C8.2173 14.1897 7.61612 14 7 14C6.38388 14 5.7827 14.1897 5.27817 14.5433C4.77363 14.8969 4.3902 15.3973 4.18 15.9765ZM8 16.9765C8 17.1742 7.94135 17.3676 7.83147 17.532C7.72159 17.6965 7.56541 17.8247 7.38268 17.9003C7.19996 17.976 6.99889 17.9958 6.80491 17.9573C6.61093 17.9187 6.43275 17.8234 6.29289 17.6836C6.15304 17.5437 6.0578 17.3655 6.01921 17.1716C5.98063 16.9776 6.00043 16.7765 6.07612 16.5938C6.15181 16.4111 6.27998 16.2549 6.44443 16.145C6.60888 16.0351 6.80222 15.9765 7 15.9765C7.26522 15.9765 7.51957 16.0818 7.70711 16.2694C7.89464 16.4569 8 16.7112 8 16.9765Z" fill="#FEFDFE" fill-opacity="0.6"/>
</svg>
