<svg width="19" height="20" viewBox="0 0 19 20" fill="none" xmlns="http://www.w3.org/2000/svg">
<path d="M6.32798 4.95085L12.914 11.5368C13.105 11.7213 13.2574 11.942 13.3622 12.186C13.467 12.43 13.5222 12.6925 13.5245 12.958C13.5268 13.2236 13.4762 13.487 13.3756 13.7328C13.2751 13.9785 13.1266 14.2019 12.9388 14.3896C12.751 14.5774 12.5277 14.7259 12.2819 14.8265C12.0361 14.9271 11.7727 14.9777 11.5072 14.9753C11.2416 14.973 10.9792 14.9179 10.7352 14.8131C10.4912 14.7082 10.2705 14.5559 10.086 14.3648L3.67198 7.77885C2.94335 7.02444 2.54017 6.01403 2.54928 4.96524C2.5584 3.91646 2.97907 2.91321 3.72071 2.17157C4.46234 1.42994 5.46559 1.00926 6.51437 1.00015C7.56316 0.991038 8.57357 1.39422 9.32798 2.12285L15.743 8.70785C16.8683 9.83316 17.5005 11.3594 17.5005 12.9508C17.5005 14.5423 16.8683 16.0685 15.743 17.1938C14.6177 18.3192 13.0914 18.9514 11.5 18.9514C9.90855 18.9514 8.38229 18.3192 7.25698 17.1938L0.999981 10.9508" stroke="#BD935B" stroke-width="2" stroke-linecap="round" stroke-linejoin="round"/>
</svg>
