<svg width="18" height="19" viewBox="0 0 18 19" fill="none" xmlns="http://www.w3.org/2000/svg">
<path d="M8.30554 18.4891C8.6555 18.481 8.99134 18.3495 9.25365 18.1176C9.51596 17.8858 9.68783 17.5687 9.73887 17.2224H6.81665C6.86914 17.5781 7.04905 17.9027 7.32293 18.1357C7.59681 18.3687 7.946 18.4943 8.30554 18.4891Z" fill="#FEFDFE" fill-opacity="0.8"/>
<path d="M16.5556 15.0723L16.3667 14.9057C15.8308 14.4282 15.3618 13.8807 14.9722 13.2779C14.5468 12.446 14.2918 11.5375 14.2222 10.6057V7.86122C14.22 7.52786 14.1902 7.19525 14.1333 6.86678C13.1923 6.67335 12.347 6.16068 11.7406 5.41554C11.1341 4.67041 10.8038 3.73861 10.8056 2.77789V2.42789C10.2255 2.14244 9.60232 1.95473 8.96111 1.87233V1.17233C8.96111 0.975628 8.88297 0.786983 8.74388 0.647893C8.60479 0.508804 8.41615 0.430664 8.21944 0.430664C8.02274 0.430664 7.8341 0.508804 7.69501 0.647893C7.55592 0.786983 7.47778 0.975628 7.47778 1.17233V1.90011C6.04207 2.10264 4.7281 2.81774 3.77846 3.9134C2.82882 5.00907 2.30763 6.4113 2.31111 7.86122V10.6057C2.24153 11.5375 1.98654 12.446 1.56111 13.2779C1.17827 13.8792 0.716775 14.4266 0.188889 14.9057L0 15.0723V16.639H16.5556V15.0723Z" fill="#FEFDFE" fill-opacity="0.8"/>
<path d="M14.9721 5.55556C16.5062 5.55556 17.7499 4.3119 17.7499 2.77778C17.7499 1.24365 16.5062 0 14.9721 0C13.438 0 12.1943 1.24365 12.1943 2.77778C12.1943 4.3119 13.438 5.55556 14.9721 5.55556Z" fill="#FA6400"/>
</svg>
