<svg width="21" height="22" viewBox="0 0 21 22" fill="none" xmlns="http://www.w3.org/2000/svg">
<path fill-rule="evenodd" clip-rule="evenodd" d="M4.535 5.50678C4.535 2.46547 7.00047 0 10.0418 0C13.0831 0 15.5486 2.46547 15.5486 5.50678C15.5486 8.5481 13.0831 11.0136 10.0418 11.0136C7.00047 11.0136 4.535 8.5481 4.535 5.50678ZM10.0418 1.94357C8.07388 1.94357 6.47857 3.53888 6.47857 5.50678C6.47857 7.47469 8.07388 9.07 10.0418 9.07C12.0097 9.07 13.605 7.47469 13.605 5.50678C13.605 3.53888 12.0097 1.94357 10.0418 1.94357Z" fill="#A5AAA6"/>
<path fill-rule="evenodd" clip-rule="evenodd" d="M4.85893 14.9007C3.24882 14.9007 1.94357 16.206 1.94357 17.8161V19.3557C1.94357 19.3792 1.96056 19.3992 1.9837 19.403C7.32043 20.2743 12.7631 20.2743 18.0999 19.403C18.123 19.3992 18.14 19.3792 18.14 19.3557V17.8161C18.14 16.206 16.8347 14.9007 15.2246 14.9007H14.783C14.7488 14.9007 14.7149 14.9061 14.6824 14.9167L13.561 15.2829C11.2743 16.0296 8.80931 16.0296 6.5226 15.2829L5.40114 14.9167C5.36868 14.9061 5.33475 14.9007 5.3006 14.9007H4.85893ZM0 17.8161C0 15.1326 2.17542 12.9571 4.85893 12.9571H5.3006C5.53965 12.9571 5.77719 12.9949 6.00443 13.0691L7.12589 13.4353C9.02059 14.054 11.063 14.054 12.9577 13.4353L14.0791 13.0691C14.3064 12.9949 14.5439 12.9571 14.783 12.9571H15.2246C17.9082 12.9571 20.0836 15.1326 20.0836 17.8161V19.3557C20.0836 20.3317 19.3763 21.1639 18.413 21.3211C12.8689 22.2263 7.21466 22.2263 1.67053 21.3211C0.707309 21.1639 0 20.3317 0 19.3557V17.8161Z" fill="#A5AAA6"/>
</svg>
