<svg width="17" height="16" viewBox="0 0 17 16" fill="none" xmlns="http://www.w3.org/2000/svg">
<path d="M16.4823 6.00796C16.4031 5.76056 16.2576 5.54006 16.0618 5.37085C15.866 5.20165 15.6275 5.09034 15.3728 5.04925L11.376 4.39474L9.52312 0.766786C9.4051 0.535825 9.22622 0.342083 9.00612 0.20682C8.78601 0.0715573 8.53318 0 8.27537 0C8.01755 0 7.76472 0.0715573 7.54461 0.20682C7.32451 0.342083 7.14563 0.535825 7.02761 0.766786L5.17478 4.39474L1.17799 5.04925C0.923529 5.09098 0.685394 5.20253 0.489712 5.37166C0.29403 5.54079 0.148363 5.76097 0.068694 6.00803C-0.0109754 6.25509 -0.0215686 6.51949 0.0380768 6.77221C0.0977222 7.02494 0.225301 7.25623 0.406816 7.4407L3.25854 10.3374L2.6413 14.3698C2.60169 14.6267 2.63315 14.8895 2.73221 15.1295C2.83127 15.3695 2.9941 15.5773 3.20279 15.7301C3.41147 15.8829 3.65793 15.9747 3.91506 15.9955C4.17218 16.0163 4.43002 15.9652 4.66019 15.8478L8.27537 14.0101L11.8906 15.8478C12.1208 15.9649 12.3786 16.0158 12.6356 15.9949C12.8927 15.9741 13.139 15.8822 13.3476 15.7295C13.5562 15.5768 13.719 15.3691 13.8182 15.1292C13.9173 14.8894 13.9489 14.6266 13.9095 14.3698L13.2923 10.3374L16.144 7.4407C16.3261 7.25659 16.4541 7.02529 16.5138 6.77242C16.5735 6.51955 16.5626 6.25497 16.4823 6.00796ZM15.3605 6.65771L12.1167 9.95262L12.819 14.5394C12.8277 14.5944 12.8211 14.6506 12.8 14.702C12.7789 14.7535 12.7441 14.798 12.6994 14.8307C12.6548 14.8634 12.602 14.883 12.547 14.8873C12.4919 14.8916 12.4368 14.8805 12.3876 14.8552L8.27537 12.7648L4.16309 14.8553C4.11393 14.8806 4.05878 14.8917 4.00374 14.8874C3.9487 14.883 3.89593 14.8634 3.85126 14.8307C3.8066 14.798 3.77179 14.7535 3.7507 14.7021C3.7296 14.6507 3.72304 14.5944 3.73175 14.5395L4.43399 9.95262L1.19023 6.65767C1.15149 6.61824 1.12427 6.56882 1.11156 6.51483C1.09884 6.46085 1.10111 6.40438 1.11813 6.35161C1.13514 6.29884 1.16624 6.25181 1.20802 6.21566C1.2498 6.17952 1.30065 6.15566 1.35499 6.1467L5.90123 5.40223L8.00878 1.27557C8.03398 1.22621 8.07219 1.1848 8.11922 1.15589C8.16625 1.12697 8.22027 1.11168 8.27537 1.11168C8.33046 1.11168 8.38448 1.12697 8.43151 1.15589C8.47854 1.1848 8.51675 1.22621 8.54195 1.27557L10.6495 5.40223L15.1957 6.1467C15.2501 6.15566 15.3009 6.17952 15.3427 6.21566C15.3845 6.25181 15.4156 6.29884 15.4326 6.35161C15.4496 6.40438 15.4519 6.46085 15.4392 6.51483C15.4265 6.56882 15.3992 6.61824 15.3605 6.65767L15.3605 6.65771Z" fill="#FEFDFE"/>
</svg>
